<svg xmlns="http://www.w3.org/2000/svg" xmlns:xlink="http://www.w3.org/1999/xlink" width="1380" zoomAndPan="magnify" viewBox="0 0 1035 374.999991" height="500" preserveAspectRatio="xMidYMid meet" version="1.0"><defs><g/><clipPath id="41cb27a908"><path d="M 909.878906 117.902344 L 1008.128906 117.902344 L 1008.128906 244 L 909.878906 244 Z M 909.878906 117.902344 " clip-rule="nonzero"/></clipPath></defs><path stroke-linecap="butt" transform="matrix(1.997666, 0, 0, 1.997666, 388.759909, 110.868684)" fill="none" stroke-linejoin="miter" d="M 15.775173 66.000098 C 15.260901 66.000098 14.834622 65.837799 14.496337 65.511246 C 14.169784 65.172961 14.007485 64.770147 14.007485 64.306716 L 14.007485 10.820472 C 14.007485 10.25536 14.183472 9.786062 14.533489 9.408669 C 14.897195 9.019543 15.362582 8.825957 15.925739 8.825957 L 38.897859 8.825957 C 46.911116 8.825957 52.982654 10.098927 57.108562 12.644867 C 61.248159 15.179074 63.316979 18.941277 63.316979 23.933431 C 63.316979 26.655357 62.571969 28.956871 61.078038 30.837972 C 59.597795 32.707341 56.983416 34.512182 53.232946 36.256405 C 53.13322 36.30529 53.08238 36.401105 53.08238 36.537983 C 53.08238 36.663129 53.13322 36.751122 53.232946 36.801963 C 57.397963 38.331091 60.350627 40.14962 62.09485 42.257548 C 63.837117 44.365477 64.709229 47.093269 64.709229 50.440926 C 64.709229 55.72248 62.691249 59.635249 58.651378 62.181188 C 54.625196 64.727128 48.453932 66.000098 40.139542 66.000098 Z M 40.139542 31.176258 C 41.93265 31.176258 43.367919 30.687406 44.447303 29.709702 C 45.526688 28.730044 46.06638 27.470762 46.06638 25.927946 C 46.06638 24.283448 45.444561 22.947906 44.202877 21.919362 C 42.972926 20.890818 41.437932 20.376546 39.593983 20.376546 L 33.272153 20.376546 C 32.607315 20.376546 32.143883 20.495825 31.879903 20.734385 C 31.629611 20.961212 31.504465 21.356204 31.504465 21.919362 L 31.504465 29.463321 C 31.504465 30.091007 31.604191 30.53684 31.805598 30.800819 C 32.018737 31.051111 32.351157 31.176258 32.802855 31.176258 Z M 39.74455 54.447554 C 41.850523 54.447554 43.506753 53.858977 44.711283 52.679867 C 45.927546 51.489024 46.535678 50.096774 46.535678 48.503118 C 46.535678 46.911416 45.939279 45.599338 44.748436 44.570794 C 43.569326 43.54225 42.032376 43.027978 40.139542 43.027978 L 33.272153 43.027978 C 32.607315 43.027978 32.143883 43.160946 31.879903 43.422971 C 31.629611 43.675218 31.504465 44.081943 31.504465 44.647055 L 31.504465 52.736573 C 31.504465 53.364259 31.604191 53.808136 31.805598 54.072116 C 32.018737 54.322408 32.351157 54.447554 32.802855 54.447554 Z M 70.945021 10.593645 C 70.945021 9.414535 71.433873 8.825957 72.411576 8.825957 L 114.0285 8.825957 C 114.943631 8.825957 115.401196 9.36565 115.401196 10.443079 L 115.324935 19.379288 C 115.324935 20.771538 114.662052 21.467663 113.332375 21.467663 L 90.209689 21.467663 C 89.030579 21.467663 88.442002 21.950648 88.442002 22.916619 L 88.442002 29.463321 C 88.442002 29.977593 88.567148 30.380407 88.81744 30.667852 C 89.08142 30.957252 89.419705 31.101952 89.834251 31.101952 L 103.700041 31.101952 C 104.77747 31.101952 105.317163 31.608402 105.317163 32.625214 L 105.317163 42.181287 C 105.317163 43.059265 104.853731 43.499231 103.924913 43.499231 L 89.664131 43.499231 C 89.312158 43.499231 89.018847 43.604823 88.780287 43.817963 C 88.55346 44.01937 88.442002 44.269662 88.442002 44.570794 L 88.442002 52.284874 C 88.442002 52.699421 88.504575 52.980999 88.629721 53.131566 C 88.754867 53.282132 88.999293 53.356437 89.362998 53.356437 L 114.403938 53.356437 C 115.532208 53.356437 116.097321 53.847244 116.097321 54.824948 L 116.097321 64.306716 C 116.097321 64.820988 115.940888 65.235534 115.626068 65.548399 C 115.324935 65.849532 114.86737 66.000098 114.253372 66.000098 L 73.033396 66.000098 C 72.255144 66.000098 71.709585 65.849532 71.39672 65.548399 C 71.095588 65.235534 70.945021 64.746682 70.945021 64.081844 Z M 121.947898 66.000098 C 121.533352 66.000098 121.195066 65.861264 120.931086 65.585552 C 120.680794 65.298107 120.555648 64.897248 120.555648 64.382976 C 120.555648 64.019271 120.63582 63.604725 120.800074 63.141293 L 139.442923 10.593645 C 139.69517 9.928807 139.976749 9.471242 140.289614 9.22095 C 140.604434 8.95697 141.093286 8.825957 141.758124 8.825957 L 156.939903 8.825957 C 157.555856 8.825957 158.107281 9.019543 158.596133 9.408669 C 159.084984 9.786062 159.454556 10.28078 159.706804 10.894778 L 178.199086 63.385719 C 178.300767 63.79831 178.349653 64.105309 178.349653 64.306716 C 178.349653 64.770147 178.249927 65.172961 178.04852 65.511246 C 177.849068 65.837799 177.540114 66.000098 177.127523 66.000098 L 162.02005 66.000098 C 161.142072 66.000098 160.57696 65.560131 160.326668 64.682154 L 157.317297 55.822205 C 157.16673 55.470232 157.02203 55.231672 156.883196 55.106526 C 156.75805 54.969648 156.519491 54.899253 156.169473 54.899253 L 139.820316 54.899253 C 139.206319 54.899253 138.823059 55.182787 138.672492 55.745944 L 135.512555 64.852274 C 135.197735 65.616838 134.583737 66.000098 133.668606 66.000098 Z M 152.311455 41.805849 C 152.876568 41.805849 153.158146 41.549691 153.158146 41.035419 C 153.158146 40.933738 153.109261 40.677579 153.00758 40.263033 L 148.381087 27.093368 C 148.279406 26.829388 148.122974 26.698376 147.909834 26.698376 C 147.708427 26.698376 147.557861 26.829388 147.458135 27.093368 L 142.755382 40.188728 C 142.653701 40.388179 142.604816 40.646293 142.604816 40.959158 C 142.604816 41.524271 142.911815 41.805849 143.525812 41.805849 Z M 234.20976 63.536285 C 234.309486 63.735737 234.360326 64.019271 234.360326 64.382976 C 234.360326 64.846408 234.215626 65.235534 233.928181 65.548399 C 233.652469 65.849532 233.288763 66.000098 232.837064 66.000098 L 217.880157 66.000098 C 216.800773 66.000098 216.104648 65.460406 215.791783 64.382976 L 208.548956 44.496489 C 208.39839 44.081943 208.140276 43.774944 207.77657 43.573537 C 207.426552 43.374085 206.88686 43.272404 206.159449 43.272404 L 202.622118 43.272404 C 202.309253 43.272404 202.076559 43.374085 201.925993 43.573537 C 201.775427 43.774944 201.701121 43.956797 201.701121 44.119095 L 201.701121 63.761157 C 201.701121 64.588294 201.493848 65.172961 201.079302 65.511246 C 200.664755 65.837799 200.025337 66.000098 199.161048 66.000098 L 186.198656 66.000098 C 185.432136 66.000098 184.906132 65.849532 184.618687 65.548399 C 184.341019 65.235534 184.204141 64.746682 184.204141 64.081844 L 184.204141 10.593645 C 184.204141 9.414535 184.692992 8.825957 185.670696 8.825957 L 211.407761 8.825957 C 218.857861 8.825957 224.634132 10.249494 228.734621 13.096566 C 232.848797 15.943638 234.905885 19.963955 234.905885 25.15556 C 234.905885 28.704623 233.965334 31.866516 232.084233 34.637328 C 230.214864 37.410095 227.79407 39.359635 224.821852 40.48986 C 224.508986 40.652159 224.352554 40.908317 224.352554 41.260291 C 224.352554 41.410857 224.401439 41.64355 224.50312 41.956415 Z M 210.711636 31.778523 C 212.668998 31.778523 214.174661 31.283805 215.22667 30.292414 C 216.280634 29.28929 216.806639 27.934193 216.806639 26.229078 C 216.806639 24.334289 216.175043 22.859912 214.907939 21.807903 C 213.652568 20.753939 212.098019 20.225979 210.242338 20.225979 L 203.468809 20.225979 C 202.803971 20.225979 202.340539 20.345259 202.076559 20.583819 C 201.826267 20.810646 201.701121 21.205638 201.701121 21.768795 L 201.701121 30.159446 C 201.701121 30.724559 201.789114 31.139105 201.963146 31.401129 C 202.139132 31.653377 202.483284 31.778523 202.997556 31.778523 Z M 210.711636 31.778523 " stroke="#000000" stroke-width="2.890012" stroke-opacity="1" stroke-miterlimit="4"/><g fill="#000000" fill-opacity="1"><g transform="translate(39.25932, 245.143866)"><g><path d="M 4.3125 -110.78125 C 4.3125 -111.8125 4.644531 -112.660156 5.3125 -113.328125 C 5.976562 -113.992188 6.929688 -114.328125 8.171875 -114.328125 L 100.3125 -114.328125 C 101.539062 -114.328125 102.488281 -113.992188 103.15625 -113.328125 C 103.820312 -112.660156 104.15625 -111.8125 104.15625 -110.78125 L 104.15625 -92.453125 C 104.15625 -90.492188 103.023438 -89.515625 100.765625 -89.515625 L 73.5 -89.515625 C 72.257812 -89.515625 71.640625 -89.003906 71.640625 -87.984375 L 71.640625 -3.390625 C 71.640625 -2.253906 71.382812 -1.40625 70.875 -0.84375 C 70.363281 -0.28125 69.644531 0 68.71875 0 L 39.4375 0 C 37.59375 0 36.671875 -1.023438 36.671875 -3.078125 L 36.671875 -87.359375 C 36.671875 -88.796875 36.101562 -89.515625 34.96875 -89.515625 L 7.859375 -89.515625 C 5.492188 -89.515625 4.3125 -90.492188 4.3125 -92.453125 Z M 4.3125 -110.78125 "/></g></g></g><g fill="#000000" fill-opacity="1"><g transform="translate(147.724702, 245.143866)"><g><path d="M 45.453125 -45.765625 C 44.734375 -45.765625 44.140625 -45.53125 43.671875 -45.0625 C 43.210938 -44.601562 42.984375 -44.066406 42.984375 -43.453125 L 42.984375 -4.46875 C 42.984375 -2.820312 42.570312 -1.664062 41.75 -1 C 40.925781 -0.332031 39.644531 0 37.90625 0 L 12.171875 0 C 10.628906 0 9.550781 -0.304688 8.9375 -0.921875 C 8.320312 -1.535156 8.015625 -2.515625 8.015625 -3.859375 L 8.015625 -110.78125 C 8.015625 -111.914062 8.269531 -112.789062 8.78125 -113.40625 C 9.289062 -114.019531 10.007812 -114.328125 10.9375 -114.328125 L 40.21875 -114.328125 C 41.039062 -114.328125 41.707031 -114.039062 42.21875 -113.46875 C 42.726562 -112.90625 42.984375 -112.113281 42.984375 -111.09375 L 42.984375 -75.34375 C 42.984375 -73.289062 43.910156 -72.265625 45.765625 -72.265625 L 71.640625 -72.265625 C 73.492188 -72.265625 74.421875 -73.289062 74.421875 -75.34375 L 74.421875 -111.09375 C 74.421875 -112.113281 74.675781 -112.90625 75.1875 -113.46875 C 75.695312 -114.039062 76.363281 -114.328125 77.1875 -114.328125 L 106.46875 -114.328125 C 107.394531 -114.328125 108.113281 -114.019531 108.625 -113.40625 C 109.132812 -112.789062 109.390625 -111.914062 109.390625 -110.78125 L 109.390625 -3.859375 C 109.390625 -2.515625 109.082031 -1.535156 108.46875 -0.921875 C 107.851562 -0.304688 106.773438 0 105.234375 0 L 79.5 0 C 77.757812 0 76.476562 -0.332031 75.65625 -1 C 74.832031 -1.664062 74.421875 -2.820312 74.421875 -4.46875 L 74.421875 -43.453125 C 74.421875 -44.066406 74.1875 -44.601562 73.71875 -45.0625 C 73.257812 -45.53125 72.671875 -45.765625 71.953125 -45.765625 Z M 45.453125 -45.765625 "/></g></g></g><g fill="#000000" fill-opacity="1"><g transform="translate(265.126145, 245.143866)"><g><path d="M 8.015625 -110.78125 C 8.015625 -113.144531 8.988281 -114.328125 10.9375 -114.328125 L 94.140625 -114.328125 C 95.992188 -114.328125 96.921875 -113.25 96.921875 -111.09375 L 96.765625 -93.21875 C 96.765625 -90.445312 95.425781 -89.0625 92.75 -89.0625 L 46.53125 -89.0625 C 44.164062 -89.0625 42.984375 -88.082031 42.984375 -86.125 L 42.984375 -73.03125 C 42.984375 -72.007812 43.238281 -71.210938 43.75 -70.640625 C 44.269531 -70.078125 44.941406 -69.796875 45.765625 -69.796875 L 73.5 -69.796875 C 75.65625 -69.796875 76.734375 -68.769531 76.734375 -66.71875 L 76.734375 -47.609375 C 76.734375 -45.859375 75.804688 -44.984375 73.953125 -44.984375 L 45.453125 -44.984375 C 44.734375 -44.984375 44.140625 -44.78125 43.671875 -44.375 C 43.210938 -43.96875 42.984375 -43.453125 42.984375 -42.828125 L 42.984375 -27.421875 C 42.984375 -26.597656 43.113281 -26.03125 43.375 -25.71875 C 43.632812 -25.414062 44.125 -25.265625 44.84375 -25.265625 L 94.90625 -25.265625 C 97.164062 -25.265625 98.296875 -24.289062 98.296875 -22.34375 L 98.296875 -3.390625 C 98.296875 -2.359375 97.988281 -1.535156 97.375 -0.921875 C 96.757812 -0.304688 95.835938 0 94.609375 0 L 12.171875 0 C 10.628906 0 9.550781 -0.304688 8.9375 -0.921875 C 8.320312 -1.535156 8.015625 -2.515625 8.015625 -3.859375 Z M 8.015625 -110.78125 "/></g></g></g><g clip-path="url(#41cb27a908)"><path fill="#000000" d="M 945.550781 117.898438 L 943.195312 134.964844 L 941.042969 137.566406 L 940.644531 137.925781 L 939.679688 139.039062 L 938.785156 140.320312 L 937.960938 141.75 L 937.203125 143.328125 L 936.539062 145.03125 L 935.949219 146.859375 L 935.457031 148.789062 L 935.070312 150.828125 L 934.777344 152.953125 L 934.609375 155.160156 L 934.542969 157.425781 L 934.609375 159.679688 L 934.777344 161.890625 L 935.070312 164.011719 L 935.457031 166.054688 L 935.949219 167.984375 L 936.539062 169.8125 L 937.203125 171.511719 L 937.960938 173.097656 L 938.785156 174.519531 L 939.679688 175.800781 L 940.644531 176.914062 L 941.660156 177.84375 L 942.738281 178.59375 L 943.28125 178.890625 L 943.847656 179.140625 L 944.433594 179.339844 L 945.007812 179.480469 L 945.597656 179.558594 L 946.199219 179.589844 L 946.796875 179.558594 L 947.386719 179.480469 L 947.96875 179.339844 L 948.542969 179.140625 L 949.113281 178.890625 L 949.664062 178.59375 L 950.734375 177.84375 L 951.75 176.914062 L 952.714844 175.800781 L 953.609375 174.519531 L 954.449219 173.097656 L 955.191406 171.511719 L 955.863281 169.8125 L 956.453125 167.984375 L 956.9375 166.054688 L 957.328125 164.011719 L 957.617188 161.890625 L 957.757812 160.121094 L 957.574219 160.152344 C 957.882812 153.828125 957.152344 148.390625 954.433594 141.890625 L 953.246094 139.796875 L 952.714844 139.039062 L 951.75 137.925781 L 950.734375 136.996094 L 949.664062 136.246094 L 949.113281 135.953125 L 948.683594 135.761719 L 947.753906 133.828125 Z M 973.851562 119.1875 L 970.292969 137.242188 L 969.746094 137.535156 L 968.671875 138.289062 L 967.65625 139.214844 L 966.6875 140.328125 L 966.164062 141.089844 L 964.972656 143.179688 C 962.921875 149.042969 961.675781 155.085938 961.832031 161.441406 L 961.648438 161.410156 L 961.789062 163.179688 L 962.074219 165.300781 L 962.464844 167.34375 L 962.960938 169.273438 L 963.550781 171.101562 L 964.210938 172.804688 L 964.964844 174.386719 L 965.796875 175.808594 L 966.6875 177.089844 L 967.65625 178.203125 L 968.671875 179.132812 L 969.746094 179.882812 L 970.292969 180.179688 L 970.859375 180.429688 L 971.433594 180.628906 L 972.015625 180.769531 L 972.605469 180.851562 L 973.203125 180.878906 L 973.808594 180.851562 L 974.398438 180.769531 L 974.980469 180.628906 L 975.554688 180.429688 L 976.121094 180.179688 L 976.667969 179.882812 L 977.742188 179.132812 L 978.761719 178.203125 L 979.726562 177.089844 L 980.617188 175.808594 L 981.445312 174.386719 L 982.203125 172.804688 L 982.867188 171.101562 L 983.457031 169.273438 L 983.949219 167.34375 L 984.339844 165.300781 L 984.628906 163.179688 L 984.796875 160.96875 L 984.863281 158.707031 L 984.796875 156.453125 L 984.628906 154.242188 L 984.339844 152.121094 L 983.949219 150.078125 L 983.457031 148.148438 L 982.867188 146.320312 L 982.203125 144.617188 L 981.445312 143.039062 L 980.617188 141.613281 L 979.726562 140.328125 L 978.761719 139.214844 L 978.363281 138.855469 L 976.210938 136.253906 Z M 915.039062 150.667969 L 915.011719 150.683594 L 914.972656 150.683594 L 914.945312 150.691406 L 914.78125 150.691406 L 914.714844 150.703125 L 914.65625 150.710938 L 914.523438 150.734375 L 914.496094 150.742188 L 914.449219 150.761719 L 914.382812 150.785156 L 914.324219 150.800781 L 914.257812 150.824219 L 914.191406 150.851562 L 914.125 150.890625 L 914.007812 150.941406 L 913.890625 151.027344 L 913.773438 151.09375 L 913.53125 151.273438 L 913.398438 151.390625 L 913.277344 151.5 L 913.058594 151.730469 L 912.617188 152.296875 L 912.1875 152.972656 L 911.804688 153.746094 L 911.4375 154.625 L 911.121094 155.574219 L 910.816406 156.613281 L 910.351562 158.90625 L 910.058594 161.457031 L 909.949219 164.160156 L 910.058594 166.871094 L 910.351562 169.421875 L 910.816406 171.710938 L 911.121094 172.75 L 911.4375 173.703125 L 911.804688 174.578125 L 911.902344 174.769531 L 911.886719 174.875 L 911.847656 176.390625 L 911.910156 177.976562 L 912.085938 179.613281 L 912.371094 181.320312 L 912.777344 183.046875 L 913.292969 184.8125 L 913.925781 186.597656 L 914.679688 188.375 L 915.527344 190.113281 L 916.449219 191.753906 L 917.421875 193.296875 L 918.460938 194.726562 L 919.535156 196.042969 L 920.648438 197.238281 L 921.796875 198.304688 L 922.957031 199.25 L 924.121094 200.039062 L 925.292969 200.679688 L 926.449219 201.179688 L 927.597656 201.511719 L 928.71875 201.6875 L 929.816406 201.675781 L 930.339844 201.609375 L 930.855469 201.496094 L 931.359375 201.335938 L 931.851562 201.128906 L 932.324219 200.878906 L 932.765625 200.582031 L 933.183594 200.246094 L 933.574219 199.867188 L 934.277344 199.019531 L 934.871094 198.027344 L 935.359375 196.914062 L 935.742188 195.675781 L 936.015625 194.335938 L 936.171875 192.898438 L 936.214844 191.378906 L 936.15625 189.796875 L 935.976562 188.160156 L 935.691406 186.449219 L 935.285156 184.726562 L 934.769531 182.957031 L 934.136719 181.175781 L 933.382812 179.398438 L 932.535156 177.660156 L 931.628906 176.015625 L 930.644531 174.476562 L 929.609375 173.046875 L 928.527344 171.726562 L 927.421875 170.535156 L 926.28125 169.464844 L 925.121094 168.535156 L 923.949219 167.734375 L 922.777344 167.09375 L 921.613281 166.589844 L 920.464844 166.261719 L 919.335938 166.082031 L 918.253906 166.097656 L 917.722656 166.164062 L 917.207031 166.273438 L 916.839844 166.390625 L 916.832031 166.355469 L 916.332031 164.96875 L 915.867188 163.519531 L 915.484375 162 L 915.164062 160.417969 L 914.921875 158.816406 L 914.78125 157.246094 L 914.714844 155.730469 L 914.714844 154.25 L 914.8125 152.832031 L 914.988281 151.484375 L 915.035156 151.277344 L 915.070312 151.074219 L 915.136719 150.683594 L 915.128906 150.683594 L 915.113281 150.667969 Z M 1002.917969 150.691406 L 1002.902344 150.703125 L 1002.894531 150.703125 L 1002.960938 151.09375 L 1003 151.300781 L 1003.042969 151.507812 L 1003.222656 152.855469 L 1003.316406 154.269531 L 1003.316406 155.753906 L 1003.25 157.269531 L 1003.109375 158.839844 L 1002.867188 160.4375 L 1002.550781 162.023438 L 1002.167969 163.539062 L 1001.703125 164.992188 L 1001.203125 166.378906 L 1001.195312 166.414062 L 1000.824219 166.296875 L 1000.308594 166.1875 L 999.777344 166.121094 L 998.695312 166.105469 L 997.566406 166.28125 L 996.417969 166.613281 L 995.253906 167.113281 L 994.082031 167.753906 L 992.910156 168.558594 L 991.753906 169.488281 L 990.609375 170.554688 L 989.503906 171.75 L 988.421875 173.070312 L 987.390625 174.5 L 986.402344 176.039062 L 985.496094 177.679688 L 984.648438 179.421875 L 983.898438 181.195312 L 983.261719 182.980469 L 982.746094 184.75 L 982.339844 186.472656 L 982.054688 188.183594 L 981.878906 189.816406 L 981.820312 191.402344 L 981.863281 192.921875 L 982.015625 194.355469 L 982.289062 195.699219 L 982.671875 196.9375 L 983.160156 198.046875 L 983.757812 199.042969 L 984.457031 199.890625 L 984.847656 200.265625 L 985.265625 200.605469 L 985.710938 200.902344 L 986.179688 201.152344 L 986.675781 201.355469 L 987.175781 201.519531 L 987.691406 201.628906 L 988.214844 201.695312 L 989.3125 201.710938 L 990.433594 201.535156 L 991.582031 201.203125 L 992.742188 200.703125 L 993.914062 200.058594 L 995.078125 199.273438 L 996.234375 198.328125 L 997.382812 197.261719 L 998.496094 196.066406 L 999.574219 194.746094 L 1000.613281 193.316406 L 1001.585938 191.777344 L 1002.507812 190.132812 L 1003.355469 188.394531 L 1004.105469 186.621094 L 1004.738281 184.835938 L 1005.253906 183.066406 L 1005.660156 181.34375 L 1005.949219 179.632812 L 1006.125 178 L 1006.183594 176.414062 L 1006.148438 174.894531 L 1006.132812 174.792969 L 1006.226562 174.601562 L 1006.597656 173.722656 L 1006.914062 172.773438 L 1007.214844 171.734375 L 1007.679688 169.441406 L 1007.972656 166.894531 L 1008.085938 164.183594 L 1007.972656 161.476562 L 1007.679688 158.929688 L 1007.214844 156.636719 L 1006.914062 155.597656 L 1006.597656 154.648438 L 1006.226562 153.769531 L 1005.84375 152.996094 L 1005.417969 152.316406 L 1004.976562 151.75 L 1004.753906 151.523438 L 1004.636719 151.410156 L 1004.503906 151.292969 L 1004.261719 151.117188 L 1004.140625 151.050781 L 1004.082031 151.007812 L 1004.023438 150.960938 L 1003.90625 150.910156 L 1003.839844 150.875 L 1003.773438 150.84375 L 1003.707031 150.824219 L 1003.648438 150.808594 L 1003.582031 150.785156 L 1003.539062 150.761719 L 1003.507812 150.757812 L 1003.375 150.734375 L 1003.316406 150.726562 L 1003.25 150.710938 L 1003.089844 150.710938 L 1003.058594 150.703125 L 1003.023438 150.703125 L 1002.992188 150.691406 Z M 958.484375 187.929688 L 956.9375 188.019531 L 955.441406 188.253906 L 953.988281 188.652344 L 952.597656 189.199219 L 951.277344 189.875 L 950.023438 190.671875 C 945.941406 195.105469 944.6875 199.539062 942.664062 203.972656 L 941.792969 205.203125 L 940.8125 206.339844 L 939.730469 207.378906 L 938.570312 208.304688 L 937.320312 209.101562 L 936 209.78125 C 931.191406 210.988281 928.167969 212.792969 925.550781 214.730469 L 924.464844 215.769531 L 923.484375 216.90625 L 922.625 218.144531 L 921.460938 220.367188 L 921.222656 220.878906 L 920.714844 222.351562 L 920.347656 223.890625 L 920.109375 225.484375 L 920.035156 227.125 L 920.109375 228.761719 L 920.347656 230.359375 L 920.714844 231.902344 L 921.222656 233.375 L 921.855469 234.773438 L 922.625 236.109375 L 923.484375 237.339844 L 924.464844 238.472656 L 925.550781 239.511719 L 926.707031 240.441406 L 927.960938 241.246094 L 929.277344 241.914062 L 930.671875 242.46875 C 933.414062 243.867188 935.785156 243.894531 938.769531 242.726562 L 938.785156 242.703125 L 939.65625 242.46875 L 941.046875 241.914062 L 942.367188 241.246094 L 943.628906 240.441406 C 951.230469 235.542969 959.628906 232.585938 972.726562 241.074219 L 973.976562 241.878906 C 978.152344 244.664062 982.550781 244.449219 987.074219 242.554688 L 988.386719 241.878906 L 989.644531 241.074219 L 990.804688 240.144531 L 991.886719 239.105469 L 992.859375 237.972656 L 993.730469 236.742188 L 994.488281 235.410156 L 995.121094 234.007812 L 995.636719 232.535156 L 996 230.996094 L 996.234375 229.394531 L 996.316406 227.757812 L 996.234375 226.117188 L 996 224.523438 L 995.636719 222.984375 L 995.121094 221.511719 L 994.488281 220.109375 L 993.730469 218.777344 L 992.859375 217.539062 L 991.886719 216.402344 L 990.804688 215.363281 L 989.644531 214.4375 L 988.386719 213.640625 L 983.617188 212.253906 L 982.226562 211.703125 L 980.90625 211.023438 L 979.652344 210.230469 L 978.496094 209.300781 L 977.414062 208.261719 L 976.433594 207.128906 L 975.570312 205.890625 L 974.804688 204.5625 L 971.03125 195.011719 L 970.160156 193.773438 L 969.1875 192.640625 L 968.105469 191.601562 L 966.945312 190.671875 L 965.695312 189.875 L 964.375 189.199219 L 962.980469 188.652344 L 961.53125 188.253906 L 960.027344 188.019531 Z M 958.484375 187.929688 " fill-opacity="1" fill-rule="evenodd"/></g><path stroke-linecap="butt" transform="matrix(0.75, -0.000000000000000015, 0.000000000000000015, 0.75, 0.00001242, 92.473273)" fill="none" stroke-linejoin="miter" d="M -0.00001656 1.999178 L 1380.000074 1.999178 " stroke="#000000" stroke-width="4" stroke-opacity="1" stroke-miterlimit="4"/><path stroke-linecap="butt" transform="matrix(0.750078, 0.00166518, -0.001665, 0.749998, -43.777888, 277.084405)" fill="none" stroke-linejoin="miter" d="M -0.0000382466 2.002048 L 1466.857824 2.000489 " stroke="#000000" stroke-width="4" stroke-opacity="1" stroke-miterlimit="4"/></svg>