<svg xmlns="http://www.w3.org/2000/svg" xmlns:xlink="http://www.w3.org/1999/xlink" width="559" zoomAndPan="magnify" viewBox="0 0 419.25 254.999992" height="340" preserveAspectRatio="xMidYMid meet" version="1.0"><defs><g/><clipPath id="057241c9b7"><path d="M 385 112 L 418.5 112 L 418.5 164 L 385 164 Z M 385 112 " clip-rule="nonzero"/></clipPath></defs><g fill="#ffffff" fill-opacity="1"><g transform="translate(0.0343533, 163.987095)"><g><path d="M 56.75 -52.25 L 36.953125 -52.25 L 36.953125 0 L 20.265625 0 L 20.265625 -52.25 L 0.65625 -52.25 L 0.65625 -65.75 L 56.75 -65.75 Z M 56.75 -52.25 "/></g></g></g><g fill="#ffffff" fill-opacity="1"><g transform="translate(57.336648, 163.987095)"><g><path d="M 40.140625 -51.3125 C 45.710938 -51.3125 50.1875 -49.539062 53.5625 -46 C 56.9375 -42.46875 58.625 -37.765625 58.625 -31.890625 L 58.625 0 L 42.390625 0 L 42.390625 -27.390625 C 42.390625 -30.328125 41.59375 -32.65625 40 -34.375 C 38.40625 -36.09375 36.234375 -36.953125 33.484375 -36.953125 C 30.359375 -36.953125 27.859375 -35.828125 25.984375 -33.578125 C 24.109375 -31.328125 23.171875 -28.453125 23.171875 -24.953125 L 23.171875 0 L 6.9375 0 L 6.9375 -69.59375 L 23.171875 -69.59375 L 23.171875 -42.203125 C 26.734375 -48.148438 32.390625 -51.1875 40.140625 -51.3125 Z M 40.140625 -51.3125 "/></g></g></g><g fill="#ffffff" fill-opacity="1"><g transform="translate(120.922515, 163.987095)"><g><path d="M 28.609375 -51.125 C 37.359375 -51.125 43.9375 -48.429688 48.34375 -43.046875 C 52.757812 -37.671875 54.6875 -30.296875 54.125 -20.921875 L 18.578125 -20.921875 C 19.390625 -17.921875 20.828125 -15.601562 22.890625 -13.96875 C 24.953125 -12.34375 27.484375 -11.53125 30.484375 -11.53125 C 35.109375 -11.53125 39.140625 -13.253906 42.578125 -16.703125 L 51.125 -8.34375 C 45.675781 -2.40625 38.328125 0.5625 29.078125 0.5625 C 20.890625 0.5625 14.367188 -1.78125 9.515625 -6.46875 C 4.671875 -11.15625 2.25 -17.378906 2.25 -25.140625 C 2.25 -32.953125 4.671875 -39.234375 9.515625 -43.984375 C 14.367188 -48.742188 20.734375 -51.125 28.609375 -51.125 Z M 18.296875 -29.640625 L 38.546875 -29.640625 C 38.546875 -32.703125 37.65625 -35.171875 35.875 -37.046875 C 34.09375 -38.921875 31.734375 -39.859375 28.796875 -39.859375 C 26.046875 -39.859375 23.734375 -38.9375 21.859375 -37.09375 C 19.984375 -35.25 18.796875 -32.765625 18.296875 -29.640625 Z M 18.296875 -29.640625 "/></g></g></g><g fill="#ffffff" fill-opacity="1"><g transform="translate(177.380738, 163.987095)"><g/></g></g><g fill="#ffffff" fill-opacity="1"><g transform="translate(199.138742, 163.987095)"><g><path d="M 6.5625 -65.65625 L 37.609375 -65.65625 C 44.992188 -65.65625 50.859375 -64.171875 55.203125 -61.203125 C 59.546875 -58.234375 61.71875 -54.25 61.71875 -49.25 C 61.71875 -45.800781 60.71875 -42.78125 58.71875 -40.1875 C 56.71875 -37.59375 53.96875 -35.796875 50.46875 -34.796875 C 54.59375 -33.984375 57.875 -32.078125 60.3125 -29.078125 C 62.75 -26.078125 63.96875 -22.453125 63.96875 -18.203125 C 63.96875 -12.628906 61.703125 -8.203125 57.171875 -4.921875 C 52.640625 -1.640625 46.492188 0 38.734375 0 L 6.5625 0 Z M 23.171875 -52.90625 L 23.171875 -39.390625 L 36.671875 -39.390625 C 39.109375 -39.390625 41.046875 -40 42.484375 -41.21875 C 43.921875 -42.4375 44.640625 -44.109375 44.640625 -46.234375 C 44.640625 -48.304688 43.921875 -49.9375 42.484375 -51.125 C 41.046875 -52.3125 39.109375 -52.90625 36.671875 -52.90625 Z M 23.171875 -27.390625 L 23.171875 -12.84375 L 36.671875 -12.84375 C 39.796875 -12.84375 42.25 -13.5 44.03125 -14.8125 C 45.8125 -16.132812 46.703125 -17.953125 46.703125 -20.265625 C 46.703125 -22.453125 45.8125 -24.1875 44.03125 -25.46875 C 42.25 -26.75 39.796875 -27.390625 36.671875 -27.390625 Z M 23.171875 -27.390625 "/></g></g></g><g fill="#ffffff" fill-opacity="1"><g transform="translate(266.194632, 163.987095)"><g><path d="M 28.609375 -51.125 C 37.359375 -51.125 43.9375 -48.429688 48.34375 -43.046875 C 52.757812 -37.671875 54.6875 -30.296875 54.125 -20.921875 L 18.578125 -20.921875 C 19.390625 -17.921875 20.828125 -15.601562 22.890625 -13.96875 C 24.953125 -12.34375 27.484375 -11.53125 30.484375 -11.53125 C 35.109375 -11.53125 39.140625 -13.253906 42.578125 -16.703125 L 51.125 -8.34375 C 45.675781 -2.40625 38.328125 0.5625 29.078125 0.5625 C 20.890625 0.5625 14.367188 -1.78125 9.515625 -6.46875 C 4.671875 -11.15625 2.25 -17.378906 2.25 -25.140625 C 2.25 -32.953125 4.671875 -39.234375 9.515625 -43.984375 C 14.367188 -48.742188 20.734375 -51.125 28.609375 -51.125 Z M 18.296875 -29.640625 L 38.546875 -29.640625 C 38.546875 -32.703125 37.65625 -35.171875 35.875 -37.046875 C 34.09375 -38.921875 31.734375 -39.859375 28.796875 -39.859375 C 26.046875 -39.859375 23.734375 -38.9375 21.859375 -37.09375 C 19.984375 -35.25 18.796875 -32.765625 18.296875 -29.640625 Z M 18.296875 -29.640625 "/></g></g></g><g fill="#ffffff" fill-opacity="1"><g transform="translate(322.652855, 163.987095)"><g><path d="M 29.171875 -51.3125 C 36.109375 -51.3125 41.5 -49.695312 45.34375 -46.46875 C 49.195312 -43.25 51.15625 -38.765625 51.21875 -33.015625 L 51.21875 0 L 35.359375 0 L 35.359375 -5.8125 C 32.046875 -1.4375 26.890625 0.75 19.890625 0.75 C 14.566406 0.75 10.34375 -0.71875 7.21875 -3.65625 C 4.09375 -6.59375 2.53125 -10.40625 2.53125 -15.09375 C 2.53125 -19.914062 4.203125 -23.65625 7.546875 -26.3125 C 10.890625 -28.96875 15.691406 -30.328125 21.953125 -30.390625 L 35.265625 -30.390625 L 35.265625 -31.140625 C 35.265625 -33.640625 34.4375 -35.59375 32.78125 -37 C 31.125 -38.40625 28.671875 -39.109375 25.421875 -39.109375 C 20.859375 -39.109375 15.820312 -37.703125 10.3125 -34.890625 L 5.71875 -45.578125 C 13.914062 -49.398438 21.734375 -51.3125 29.171875 -51.3125 Z M 24.859375 -10.21875 C 27.421875 -10.21875 29.671875 -10.859375 31.609375 -12.140625 C 33.546875 -13.421875 34.765625 -15.097656 35.265625 -17.171875 L 35.265625 -21.671875 L 25.046875 -21.671875 C 20.171875 -21.671875 17.734375 -19.859375 17.734375 -16.234375 C 17.734375 -14.347656 18.359375 -12.875 19.609375 -11.8125 C 20.859375 -10.75 22.609375 -10.21875 24.859375 -10.21875 Z M 24.859375 -10.21875 "/></g></g></g><g clip-path="url(#057241c9b7)"><g fill="#ffffff" fill-opacity="1"><g transform="translate(378.92351, 163.987095)"><g><path d="M 22.703125 -50.5625 L 22.703125 -42.015625 C 26.265625 -48.085938 31.734375 -51.1875 39.109375 -51.3125 L 39.109375 -36.671875 C 34.484375 -37.109375 30.703125 -36.34375 27.765625 -34.375 C 24.828125 -32.40625 23.140625 -29.609375 22.703125 -25.984375 L 22.703125 0 L 6.46875 0 L 6.46875 -50.5625 Z M 22.703125 -50.5625 "/></g></g></g></g></svg>